<?xml version="1.0" encoding="UTF-8"?>
<!DOCTYPE svg PUBLIC "-//W3C//DTD SVG 1.1//EN" "http://www.w3.org/Graphics/SVG/1.1/DTD/svg11.dtd">
<!-- Creator: CorelDRAW -->
<svg xmlns="http://www.w3.org/2000/svg" xml:space="preserve" width="114.816mm" height="68.9787mm" version="1.1" style="shape-rendering:geometricPrecision; text-rendering:geometricPrecision; image-rendering:optimizeQuality; fill-rule:evenodd; clip-rule:evenodd"
viewBox="0 0 11467.34 6889.31"
 xmlns:xlink="http://www.w3.org/1999/xlink"
 xmlns:xodm="http://www.corel.com/coreldraw/odm/2003">
 <defs>
  <style type="text/css">
   <![CDATA[
    .fil0 {fill:#066D82}
   ]]>
  </style>
 </defs>
 <g id="Layer_x0020_1">
  <metadata id="CorelCorpID_0Corel-Layer"/>
  <g id="_2700218181680">
   <path class="fil0" d="M2126.48 3126.36c-464.41,-247.76 -902.16,-367.36 -1265.46,-638.71 -274.33,-204.66 54.4,-566.96 327.05,-415.5 382.93,212.67 678.35,578.5 938.4,1054.21z"/>
   <path class="fil0" d="M3495.1 2580.01c-537.92,-391.8 -1073.84,-621.87 -1474.95,-1023.06 -302.83,-302.82 214.52,-682.78 528.83,-445.41 441.31,333.19 730.54,836.99 946.11,1468.46z"/>
   <path class="fil0" d="M4809.58 2364.48c-548.21,-641.87 -941.79,-1163.93 -1138.99,-1723.84 -163.34,-463.55 577.75,-677.2 810.79,-288.33 327.38,546.08 400.48,1222.42 328.2,2012.17z"/>
   <path class="fil0" d="M9830.35 3315.78c360.8,-359.83 575.7,-720.52 943.25,-987.4 277.31,-201.34 613.3,155.59 394.78,365.69 -306.7,295.04 -765.27,484.35 -1338.03,621.72z"/>
   <path class="fil0" d="M8377.68 2694.13c486.18,-442.5 791.65,-897.83 1275.84,-1217.88 365.43,-241.54 742.21,252.95 448.77,510.7 -412,361.88 -1000.41,573.02 -1724.62,707.18z"/>
   <path class="fil0" d="M7140.54 2462.69c134.5,-798.13 280.36,-1413.85 593.33,-1929.98 259.09,-427.34 946.86,-101.34 796.38,318.77 -211.26,589.91 -704.24,1107.63 -1389.71,1611.21z"/>
   <path class="fil0" d="M5897.29 2318.43c-133.42,-659.31 -232.83,-1325.62 -155.04,-1993.05 55.96,-479.17 735.4,-390.57 723.21,15.38 -21.08,701.9 -214.56,1358.26 -568.17,1977.67z"/>
   <path class="fil0" d="M5647.62 4348.01c327.79,-594.15 1378.2,-300.01 835.02,455.91 -322.17,448.51 -1081.22,343.78 -1325.74,-200.07 -255.96,-569.44 179.74,-1120.64 731.78,-1192.73 1097.91,-143.51 1893.25,486.95 1454.87,1639.07 -542.85,1427.09 -2729.68,1201.01 -3348.9,-261.62 -165.65,-544.4 -149.89,-1074.14 189.41,-1577.52l-439.08 76.97c-402.46,812.85 -267.32,1905.13 327.16,2408.6 1191.91,1009.27 2750.17,877.04 3478.04,-400.19 570.3,-1000.78 114.75,-1714.82 -507.9,-1985.3 -840.39,-365.17 -1560.35,-310.5 -2074.8,392.39 -340.02,464.64 -388.08,1395.19 619.89,1662.14 1146.2,303.53 1694.66,-1120.23 998.62,-1479.39 -691.61,-356.86 -1074.88,-68.08 -1213.78,501.86 -40.05,163.68 193.78,213.08 275.41,-40.12z"/>
   <path class="fil0" d="M-0 4934.78c3505.08,-3061.57 7296.23,-3327.96 11467.34,115.42 -1577.6,1114.49 -3332.47,1668.48 -5208.51,1839.11 1396.34,-398.25 2657.67,-837.55 3392.01,-1415.86 417.58,-328.88 429.66,-665.94 -17.22,-954.21 -3684.52,-2376.48 -7177.49,-1300.95 -9633.63,415.54z"/>
  </g>
 </g>
</svg>
